<svg width="31" height="34" viewBox="0 0 31 34" fill="none" xmlns="http://www.w3.org/2000/svg">
<path d="M15.5 0.75C23.3445 0.750001 30.2497 7.63794 30.25 15.4541C30.25 20.1509 26.9299 24.4647 23.3477 27.7256C19.8077 30.9481 16.1879 32.9838 15.8916 33.1484C15.7672 33.217 15.6342 33.25 15.5 33.25C15.3985 33.25 15.298 33.2311 15.2031 33.1934L15.1104 33.1494C14.8281 32.9927 11.2001 30.9552 7.65234 27.7256C4.07014 24.4647 0.75 20.1509 0.75 15.4541C0.750262 7.63794 7.65545 0.75 15.5 0.75Z" fill="#686F68" stroke="#FBFDF6" stroke-width="1.5"/>
<path d="M21.6404 19.9999H16.0041C15.719 20.0024 15.4383 19.9302 15.1903 19.7904C14.9423 19.6507 14.7358 19.4485 14.5917 19.2042C14.4505 18.9687 14.3744 18.7004 14.3711 18.4263C14.3679 18.1523 14.4376 17.8822 14.5733 17.6436L17.3943 12.6169C17.5395 12.3678 17.7482 12.161 17.9993 12.0172C18.2504 11.8734 18.5352 11.7977 18.8251 11.7977C19.115 11.7977 19.3998 11.8734 19.6509 12.0172C19.902 12.161 20.1107 12.3678 20.256 12.6169L23.07 17.6398C23.2058 17.8788 23.2758 18.1492 23.2726 18.4237C23.2695 18.6982 23.1934 18.967 23.0522 19.2029C22.9081 19.4472 22.7018 19.6496 22.4539 19.7895C22.2061 19.9294 21.9255 20.002 21.6404 19.9999ZM13.4953 19.8446C13.2414 19.42 13.1045 18.9364 13.0986 18.4426C13.0927 17.9487 13.2179 17.4621 13.4616 17.0316L16.2833 12.0043C16.5137 11.5931 16.8429 11.2449 17.2416 10.9906L16.2299 9.10858C16.0476 8.77337 15.7775 8.49335 15.4481 8.2982C15.1186 8.10304 14.7422 8 14.3586 8C13.975 8 13.5986 8.10304 13.2692 8.2982C12.9398 8.49335 12.6696 8.77337 12.4874 9.10858L8.25653 16.8768C8.08108 17.1991 7.99285 17.561 8.00045 17.9272C8.00806 18.2934 8.11125 18.6514 8.29994 18.9662C8.48862 19.281 8.75633 19.5417 9.07689 19.7229C9.39745 19.9041 9.75988 19.9995 10.1287 19.9999H13.5946C13.5596 19.9494 13.5265 19.8976 13.4953 19.8446Z" fill="#FBFDF6"/>
</svg>
